<svg width="25" height="26" viewBox="0 0 25 26" fill="none" xmlns="http://www.w3.org/2000/svg">
<path d="M1.5625 0C0.699555 0 0 0.684741 0 1.52941C0 2.37408 0.699555 3.05882 1.5625 3.05882H3.46754L3.94497 4.92814C3.94999 4.94975 3.95546 4.97119 3.9614 4.99244L6.08207 13.2955L4.68742 14.6606C2.71879 16.5876 4.11305 19.8824 6.89713 19.8824H20.3124C21.1754 19.8824 21.8749 19.1976 21.8749 18.3529C21.8749 17.5083 21.1754 16.8235 20.3124 16.8235L6.89713 16.8235L8.45963 15.2941H18.75C19.3418 15.2941 19.8829 14.9668 20.1475 14.4487L24.835 5.27221C25.0772 4.79811 25.0513 4.23507 24.7666 3.78418C24.4819 3.33328 23.979 3.05882 23.4375 3.05882H6.68871L6.20335 1.15847C6.02945 0.477631 5.40448 0 4.6875 0H1.5625Z" fill="#F9F3F1"/>
<path d="M21.875 23.7059C21.875 24.9729 20.8257 26 19.5312 26C18.2368 26 17.1875 24.9729 17.1875 23.7059C17.1875 22.4389 18.2368 21.4118 19.5312 21.4118C20.8257 21.4118 21.875 22.4389 21.875 23.7059Z" fill="#F9F3F1"/>
<path d="M7.03125 26C8.32567 26 9.375 24.9729 9.375 23.7059C9.375 22.4389 8.32567 21.4118 7.03125 21.4118C5.73683 21.4118 4.6875 22.4389 4.6875 23.7059C4.6875 24.9729 5.73683 26 7.03125 26Z" fill="#F9F3F1"/>
</svg>
