<svg width="31" height="32" viewBox="0 0 31 32" fill="none" xmlns="http://www.w3.org/2000/svg">
<path d="M1.9375 0C0.867448 0 0 0.842758 0 1.88235C0 2.92195 0.867448 3.76471 1.9375 3.76471H4.29975L4.89177 6.0654C4.89798 6.092 4.90478 6.11839 4.91214 6.14455L7.54177 16.3637L5.81241 18.0438C3.3713 20.4155 5.10018 24.4706 8.55244 24.4706H25.1874C26.2575 24.4706 27.1249 23.6278 27.1249 22.5882C27.1249 21.5486 26.2575 20.7059 25.1874 20.7059L8.55244 20.7059L10.4899 18.8235H23.25C23.9839 18.8235 24.6548 18.4207 24.9829 17.783L30.7955 6.48887C31.0957 5.90537 31.0637 5.2124 30.7106 4.65745C30.3576 4.1025 29.734 3.76471 29.0625 3.76471H8.294L7.69215 1.42582C7.47652 0.587854 6.70156 0 5.8125 0H1.9375Z" fill="#171717"/>
<path d="M27.125 29.1765C27.125 30.7359 25.8238 32 24.2187 32C22.6137 32 21.3125 30.7359 21.3125 29.1765C21.3125 27.6171 22.6137 26.3529 24.2187 26.3529C25.8238 26.3529 27.125 27.6171 27.125 29.1765Z" fill="#171717"/>
<path d="M8.71875 32C10.3238 32 11.625 30.7359 11.625 29.1765C11.625 27.6171 10.3238 26.3529 8.71875 26.3529C7.11367 26.3529 5.8125 27.6171 5.8125 29.1765C5.8125 30.7359 7.11367 32 8.71875 32Z" fill="#171717"/>
</svg>
