<svg width="28" height="43" viewBox="0 0 28 43" fill="none" xmlns="http://www.w3.org/2000/svg">
<path d="M0 26.1923V32.4389H1.77349C2.0537 32.4389 2.33049 32.432 2.61069 32.4184C3.52307 32.3739 4.43202 32.2509 5.3239 32.0493C5.76471 31.9502 6.19868 31.8306 6.62924 31.6905V42.7039H13.4943V27.1252C14.2905 26.2094 14.8133 25.4098 15.0935 24.969C15.2883 24.6649 15.7701 23.8926 16.269 22.8299C16.6278 22.0679 16.9387 21.2819 17.2019 20.4789C17.4752 19.6451 17.7008 18.7977 17.8784 17.94C18.0664 17.0447 18.2031 16.1391 18.2919 15.2268C18.3876 14.2768 18.432 13.32 18.432 12.3632C18.432 4.47644 14.7552 0 9.21601 0C3.89895 0 0.399804 4.03222 0.399804 10.9007C0.399804 16.04 2.34757 21.0495 5.67244 25.0783C4.3876 25.7857 2.96949 26.1855 1.41811 26.1855H0V26.1923ZM11.7857 11.878C11.7857 15.0251 11.1638 17.9024 10.0122 20.2534C8.14987 17.506 7.08714 14.27 7.08714 10.9041C7.08714 7.89016 7.92775 6.24994 9.34586 6.24994C10.764 6.24994 11.7823 8.02344 11.7823 11.878H11.7857Z" fill="#171717"/>
<circle cx="24.0703" cy="38.7742" r="3.9297" fill="#FFC53E"/>
</svg>
