<svg width="25" height="25" viewBox="0 0 25 25" fill="none" xmlns="http://www.w3.org/2000/svg">
<path d="M13.6049 0.457646C12.9947 -0.152549 12.0053 -0.152549 11.3951 0.457646L0.457646 11.3951C-0.152549 12.0053 -0.152549 12.9947 0.457646 13.6049C1.06784 14.215 2.05716 14.215 2.66735 13.6049L3.125 13.1472V23.4375C3.125 24.3004 3.82456 25 4.6875 25H7.8125C8.67544 25 9.375 24.3004 9.375 23.4375V20.3125C9.375 19.4496 10.0746 18.75 10.9375 18.75H14.0625C14.9254 18.75 15.625 19.4496 15.625 20.3125V23.4375C15.625 24.3004 16.3246 25 17.1875 25H20.3125C21.1754 25 21.875 24.3004 21.875 23.4375V13.1472L22.3326 13.6049C22.9428 14.215 23.9322 14.215 24.5424 13.6049C25.1525 12.9947 25.1525 12.0053 24.5424 11.3951L13.6049 0.457646Z" fill="#F9F3F1"/>
</svg>
